<mxfile host="app.diagrams.net" modified="2023-05-03T14:16:36.349Z" agent="Mozilla/5.0 (Macintosh; Intel Mac OS X 10_15_7) AppleWebKit/537.36 (KHTML, like Gecko) Chrome/112.0.0.0 Safari/537.36" version="21.2.1" etag="Gb-VeYWnhzE9rod27Rq0" type="github">
  <diagram name="Page-1" id="S7sjG7QYzOW7najOChYg">
    <mxGraphModel>
      <root>
        <mxCell id="0" />
        <mxCell id="1" parent="0" />
      </root>
    </mxGraphModel>
  </diagram>
</mxfile>
